<?xml version="1.0" encoding="windows-1252"?>
<!-- Generator: Adobe Illustrator 19.0.0, SVG Export Plug-In . SVG Version: 6.00 Build 0)  -->
<svg version="1.1" id="Layer_1" xmlns="http://www.w3.org/2000/svg" xmlns:xlink="http://www.w3.org/1999/xlink" x="0px" y="0px" viewBox="0 0 464 464" style="enable-background:new 0 0 464 464;" xml:space="preserve">
<g>
	<g>
		<path style="fill:#3782C8;" d="M48,52H24c-4.418,0-8-3.582-8-8V12h32V52z"/>
	</g>
	<g>
		<path style="fill:#5CA7E8;" d="M416,52h24c4.418,0,8-3.582,8-8V12h-32V52z"/>
	</g>
	<g>
		<path style="fill:#64AFF0;" d="M385.121,464H78.879c-8.386,0-15.35-6.475-15.958-14.839L32,24h400l-30.921,425.161    C400.471,457.525,393.508,464,385.121,464z"/>
	</g>
	<g>
		<path style="fill:#55A0E1;" d="M436,24H28c-6.627,0-12-5.373-12-12l0,0c0-6.627,5.373-12,12-12h408c6.627,0,12,5.373,12,12l0,0    C448,18.627,442.627,24,436,24z"/>
	</g>
	<path style="fill:#55A0E1;" d="M232,240c-28.773,0-56.243-5.24-81.363-14.742L136,24H32l30.921,425.161   C63.529,457.524,70.492,464,78.878,464h104c-8.386,0-15.349-6.476-15.958-14.839l-13.894-191.044   C177.686,267.084,204.274,272,232,272c77.949,0,146.989-38.682,189.077-97.814l3.137-43.125C388.366,195.669,315.692,240,232,240z"/>
	<g>
		<path style="fill:#4191D7;" d="M152,12c0-6.627,5.373-12,12-12H28c-6.627,0-12,5.373-12,12s5.373,12,12,12h136    C157.373,24,152,18.627,152,12z"/>
	</g>
	<g>
		<path style="fill:#FFD250;" d="M456,16h-8v8c0,110.281-96.898,200-216,200S16,134.281,16,24c0-4.418-3.582-8-8-8s-8,3.582-8,8    c0,127.926,104.074,232,232,232S464,151.926,464,24C464,19.582,460.418,16,456,16z"/>
	</g>
	<g>
		<path style="fill:#FFB940;" d="M161.875,213.121C77.102,186.094,16,111.554,16,24v-8H8c-4.418,0-8,3.582-8,8    c0,127.926,104.074,232,232,232c10.861,0,21.532-0.809,32-2.26C226.325,248.517,191.535,234.218,161.875,213.121z"/>
	</g>
</g>
<g>
</g>
<g>
</g>
<g>
</g>
<g>
</g>
<g>
</g>
<g>
</g>
<g>
</g>
<g>
</g>
<g>
</g>
<g>
</g>
<g>
</g>
<g>
</g>
<g>
</g>
<g>
</g>
<g>
</g>
</svg>